<svg id="visual" viewBox="0 0 1920 1080" width="1920" height="1080" xmlns="http://www.w3.org/2000/svg" xmlns:xlink="http://www.w3.org/1999/xlink" version="1.1"><path d="M0 228L29.2 224.3C58.3 220.7 116.7 213.3 174.8 207.8C233 202.3 291 198.7 349.2 182.5C407.3 166.3 465.7 137.7 523.8 121.5C582 105.3 640 101.7 698.2 121.5C756.3 141.3 814.7 184.7 872.8 200.8C931 217 989 206 1047.2 189.8C1105.3 173.7 1163.7 152.3 1221.8 145.2C1280 138 1338 145 1396.2 137.7C1454.3 130.3 1512.7 108.7 1570.8 110.5C1629 112.3 1687 137.7 1745.2 136C1803.3 134.3 1861.7 105.7 1890.8 91.3L1920 77L1920 0L1890.8 0C1861.7 0 1803.3 0 1745.2 0C1687 0 1629 0 1570.8 0C1512.7 0 1454.3 0 1396.2 0C1338 0 1280 0 1221.8 0C1163.7 0 1105.3 0 1047.2 0C989 0 931 0 872.8 0C814.7 0 756.3 0 698.2 0C640 0 582 0 523.8 0C465.7 0 407.3 0 349.2 0C291 0 233 0 174.8 0C116.7 0 58.3 0 29.2 0L0 0Z" fill="#fece89"></path><path d="M0 584L29.2 571.5C58.3 559 116.7 534 174.8 508.8C233 483.7 291 458.3 349.2 447.5C407.3 436.7 465.7 440.3 523.8 445.7C582 451 640 458 698.2 463.3C756.3 468.7 814.7 472.3 872.8 485C931 497.7 989 519.3 1047.2 505C1105.3 490.7 1163.7 440.3 1221.8 436.7C1280 433 1338 476 1396.2 465.2C1454.3 454.3 1512.7 389.7 1570.8 370C1629 350.3 1687 375.7 1745.2 388.3C1803.3 401 1861.7 401 1890.8 401L1920 401L1920 75L1890.8 89.3C1861.7 103.7 1803.3 132.3 1745.2 134C1687 135.7 1629 110.3 1570.8 108.5C1512.7 106.7 1454.3 128.3 1396.2 135.7C1338 143 1280 136 1221.8 143.2C1163.7 150.3 1105.3 171.7 1047.2 187.8C989 204 931 215 872.8 198.8C814.7 182.7 756.3 139.3 698.2 119.5C640 99.7 582 103.3 523.8 119.5C465.7 135.7 407.3 164.3 349.2 180.5C291 196.7 233 200.3 174.8 205.8C116.7 211.3 58.3 218.7 29.2 222.3L0 226Z" fill="#fdc36f"></path><path d="M0 746L29.2 728C58.3 710 116.7 674 174.8 657.8C233 641.7 291 645.3 349.2 659.8C407.3 674.3 465.7 699.7 523.8 710.5C582 721.3 640 717.7 698.2 706.8C756.3 696 814.7 678 872.8 683.3C931 688.7 989 717.3 1047.2 704.7C1105.3 692 1163.7 638 1221.8 638C1280 638 1338 692 1396.2 677.7C1454.3 663.3 1512.7 580.7 1570.8 539.3C1629 498 1687 498 1745.2 516C1803.3 534 1861.7 570 1890.8 588L1920 606L1920 399L1890.8 399C1861.7 399 1803.3 399 1745.2 386.3C1687 373.7 1629 348.3 1570.8 368C1512.7 387.7 1454.3 452.3 1396.2 463.2C1338 474 1280 431 1221.8 434.7C1163.7 438.3 1105.3 488.7 1047.2 503C989 517.3 931 495.7 872.8 483C814.7 470.3 756.3 466.7 698.2 461.3C640 456 582 449 523.8 443.7C465.7 438.3 407.3 434.7 349.2 445.5C291 456.3 233 481.7 174.8 506.8C116.7 532 58.3 557 29.2 569.5L0 582Z" fill="#fbb754"></path><path d="M0 854L29.2 837.8C58.3 821.7 116.7 789.3 174.8 785.8C233 782.3 291 807.7 349.2 820.3C407.3 833 465.7 833 523.8 831.2C582 829.3 640 825.7 698.2 807.7C756.3 789.7 814.7 757.3 872.8 766.3C931 775.3 989 825.7 1047.2 823.8C1105.3 822 1163.7 768 1221.8 773.3C1280 778.7 1338 843.3 1396.2 830.7C1454.3 818 1512.7 728 1570.8 686.7C1629 645.3 1687 652.7 1745.2 667.2C1803.3 681.7 1861.7 703.3 1890.8 714.2L1920 725L1920 604L1890.8 586C1861.7 568 1803.3 532 1745.2 514C1687 496 1629 496 1570.8 537.3C1512.7 578.7 1454.3 661.3 1396.2 675.7C1338 690 1280 636 1221.8 636C1163.7 636 1105.3 690 1047.2 702.7C989 715.3 931 686.7 872.8 681.3C814.7 676 756.3 694 698.2 704.8C640 715.7 582 719.3 523.8 708.5C465.7 697.7 407.3 672.3 349.2 657.8C291 643.3 233 639.7 174.8 655.8C116.7 672 58.3 708 29.2 726L0 744Z" fill="#dd9f46"></path><path d="M0 1081L29.2 1081C58.3 1081 116.7 1081 174.8 1081C233 1081 291 1081 349.2 1081C407.3 1081 465.7 1081 523.8 1081C582 1081 640 1081 698.2 1081C756.3 1081 814.7 1081 872.8 1081C931 1081 989 1081 1047.2 1081C1105.3 1081 1163.7 1081 1221.8 1081C1280 1081 1338 1081 1396.2 1081C1454.3 1081 1512.7 1081 1570.8 1081C1629 1081 1687 1081 1745.2 1081C1803.3 1081 1861.7 1081 1890.8 1081L1920 1081L1920 723L1890.8 712.2C1861.7 701.3 1803.3 679.7 1745.2 665.2C1687 650.7 1629 643.3 1570.8 684.7C1512.7 726 1454.3 816 1396.2 828.7C1338 841.3 1280 776.7 1221.8 771.3C1163.7 766 1105.3 820 1047.2 821.8C989 823.7 931 773.3 872.8 764.3C814.7 755.3 756.3 787.7 698.2 805.7C640 823.7 582 827.3 523.8 829.2C465.7 831 407.3 831 349.2 818.3C291 805.7 233 780.3 174.8 783.8C116.7 787.3 58.3 819.7 29.2 835.8L0 852Z" fill="#c08738"></path></svg>